<svg width="23" height="23" viewBox="0 0 23 23" fill="black" xmlns="http://www.w3.org/2000/svg">
<path fill-rule="evenodd" clip-rule="evenodd" stroke="white" stroke-width="1" d="M11.4583 0C17.7866 0 22.9167 5.13007 22.9167 11.4583C22.9167 17.7866 17.7866 22.9167 11.4583 22.9167C5.13007 22.9167 0 17.7866 0 11.4583C0 5.13007 5.13007 0 11.4583 0ZM20.7512 12.7046C19.6469 13.279 18.1924 13.7593 16.5409 14.0905C16.3061 16.4884 15.7508 18.6052 14.9432 20.1643C18.0256 18.9293 20.2996 16.1048 20.7512 12.7046ZM14.5691 12.2964C14.5785 12.0205 14.5833 11.741 14.5833 11.4583C14.5833 6.23333 12.9233 2.08333 11.4583 2.08333C9.99334 2.08333 8.33333 6.23333 8.33333 11.4583C8.33333 11.7573 8.33877 12.0527 8.34929 12.344C9.32646 12.4461 10.3706 12.5 11.4583 12.5C12.5292 12.5 13.5799 12.4245 14.5691 12.2964ZM16.6627 11.9314C16.6653 11.7744 16.6667 11.6167 16.6667 11.4583C16.6667 7.99204 16.0359 4.86177 14.9432 2.7524C18.0434 3.99449 20.3258 6.84455 20.7589 10.271C20.2687 10.8212 18.7226 11.4747 16.6627 11.9314ZM8.5197 14.4556C9.45417 14.5397 10.4384 14.5833 11.4583 14.5833C12.4618 14.5833 13.4505 14.5265 14.4013 14.421C13.9315 18.1684 12.6323 20.8333 11.4583 20.8333C10.288 20.8333 8.99319 18.1848 8.5197 14.4556ZM6.25578 12.0315C5.65791 11.9122 5.10071 11.7718 4.59193 11.612C3.29981 11.2062 2.45541 10.7089 2.15172 10.3202C2.56904 6.87186 4.85846 4.00043 7.97349 2.7524C6.88079 4.86177 6.25 7.99204 6.25 11.4583C6.25 11.6505 6.25194 11.8415 6.25578 12.0315ZM6.38452 14.178C6.62413 16.5399 7.1757 18.6242 7.97349 20.1643C4.94455 18.9507 2.69622 16.2023 2.19059 12.881C3.27754 13.4472 4.71181 13.8872 6.38452 14.178Z" fill="black"/>
</svg>
