<svg width="22" height="21" viewBox="0 0 22 21" fill="none" xmlns="http://www.w3.org/2000/svg">
<path stroke="white" stroke-width="1" d="M7.83375 4.20768H5.75042V6.81185C5.75042 9.31257 8.17046 11.4993 10.9588 11.4993C13.747 11.4993 16.1671 9.31257 16.1671 6.81185V4.20768H14.0838V6.81185C14.0838 8.11224 12.6409 9.41602 10.9588 9.41602C9.27661 9.41602 7.83375 8.11224 7.83375 6.81185V4.20768Z" fill="black"/>
<path stroke="white" stroke-width="1" fill-rule="evenodd" clip-rule="evenodd" d="M20.2775 0.0410156L21.3127 18.6755C21.3766 19.8243 20.497 20.8073 19.3482 20.8711C19.2905 20.8738 19.2904 20.8738 19.2328 20.8744H2.6849C1.5343 20.8744 0.601562 19.9416 0.601562 18.791C0.60183 18.7621 0.601964 18.7477 0.602365 18.7332C0.602766 18.7188 0.603434 18.7043 0.60477 18.6755L1.64002 0.0410156H20.2775ZM3.61082 2.12435L2.6849 18.791H19.2326L18.3067 2.12435H3.61082Z" fill="black"/>
</svg>
